<?xml version="1.0" encoding="utf-8"?>
<svg version="1.1" xmlns:xlink="http://www.w3.org/1999/xlink" width="37px" height="37px" xmlns="http://www.w3.org/2000/svg">
  <g transform="matrix(1 0 0 1 -36 -555 )">
    <path d="M 4.77721518987342 27.820253164557  C 2.85696202531646 25.0569620253165  1.87341772151899 21.8253164556962  1.87341772151899 18.5  C 1.87341772151899 9.32025316455696  9.32025316455696 1.87341772151899  18.5 1.87341772151899  C 21.5911392405063 1.87341772151899  24.5417721518987 2.71645569620253  27.1645569620253 4.30886075949367  L 25.5721518987342 4.63670886075949  C 25.0569620253165 4.73037974683544  24.7291139240506 5.24556962025317  24.8227848101266 5.76075949367089  C 24.9164556962025 6.18227848101266  25.2911392405063 6.51012658227848  25.7594936708861 6.51012658227848  L 25.946835443038 6.51012658227848  L 30.1151898734177 5.66708860759494  C 30.6303797468354 5.57341772151899  30.9582278481013 5.05822784810127  30.8645569620253 4.54303797468355  C 30.8645569620253 4.49620253164557  30.8177215189873 4.40253164556962  30.8177215189873 4.35569620253165  C 30.8177215189873 4.2620253164557  30.7708860759494 4.16835443037975  30.7708860759494 4.0746835443038  L 29.3658227848101 0.796202531645569  C 29.1784810126582 0.327848101265823  28.6164556962025 0.093670886075949  28.1481012658228 0.327848101265823  C 27.679746835443 0.515189873417722  27.4455696202532 1.07721518987342  27.679746835443 1.54556962025316  L 28.1949367088608 2.71645569620253  C 25.2911392405063 0.936708860759494  22.0126582278481 0  18.5936708860759 0  C 8.38354430379747 0  0.093670886075949 8.28987341772152  0.093670886075949 18.5  C 0.093670886075949 22.2  1.17088607594937 25.8063291139241  3.23164556962025 28.8506329113924  C 3.41898734177215 29.1316455696203  3.7 29.2721518987342  4.02784810126582 29.2721518987342  C 4.21518987341772 29.2721518987342  4.40253164556962 29.2253164556962  4.54303797468355 29.1316455696203  C 4.96455696202532 28.8506329113924  5.10506329113924 28.2417721518987  4.77721518987342 27.820253164557  Z M 37 18.5  C 37 14.8936708860759  35.9696202531646 11.3810126582278  33.9556962025316 8.33670886075949  C 33.6746835443038 7.91518987341772  33.1126582278481 7.7746835443038  32.6443037974683 8.05569620253164  C 32.2227848101266 8.33670886075949  32.0822784810127 8.89873417721519  32.3632911392405 9.36708860759494  C 34.1430379746835 12.0835443037975  35.079746835443 15.2215189873418  35.079746835443 18.5  C 35.079746835443 27.679746835443  27.6329113924051 35.126582278481  18.453164556962 35.126582278481  C 15.3620253164557 35.126582278481  12.3177215189873 34.2835443037975  9.69493670886076 32.6443037974683  L 11.146835443038 32.3632911392405  C 11.6620253164557 32.2696202531646  11.9898734177215 31.7544303797468  11.8962025316456 31.2392405063291  C 11.8025316455696 30.7240506329114  11.2873417721519 30.3962025316456  10.7721518987342 30.4898734177215  L 6.60379746835443 31.3329113924051  C 6.08860759493671 31.426582278481  5.76075949367088 31.9417721518987  5.85443037974684 32.4569620253165  C 5.85443037974684 32.5037974683544  5.90126582278481 32.5974683544304  5.90126582278481 32.6443037974683  C 5.90126582278481 32.7379746835443  5.94810126582278 32.8316455696203  5.94810126582278 32.9253164556962  L 7.35316455696203 36.2037974683544  C 7.49367088607595 36.5784810126582  7.86835443037975 36.7658227848101  8.19620253164557 36.7658227848101  C 8.3367088607595 36.7658227848101  8.43037974683545 36.7189873417721  8.57088607594937 36.6721518987342  C 9.03924050632912 36.4848101265823  9.27341772151899 35.9227848101266  9.03924050632912 35.4544303797468  L 8.66455696202532 34.1898734177215  C 11.6151898734177 36.0164556962025  14.9873417721519 37  18.5 37  C 28.7101265822785 37  37 28.7101265822785  37 18.5  Z " fill-rule="nonzero" fill="#ffffff" stroke="none" transform="matrix(1 0 0 1 36 555 )" />
  </g>
</svg>