<?xml version="1.0" encoding="utf-8"?>
<svg version="1.1" xmlns:xlink="http://www.w3.org/1999/xlink" width="16px" height="17px" xmlns="http://www.w3.org/2000/svg">
  <g transform="matrix(1 0 0 1 -48 -565 )">
    <path d="M 14.72 6.46944444444445  L 3.84 0.425000000000003  C 3.44615384615385 0.236111111111111  3.05230769230769 0.0944444444444458  2.60923076923077 0.0944444444444458  C 1.23076923076923 0.0944444444444458  0.147692307692306 1.13333333333334  0.147692307692306 2.45555555555556  L 0.147692307692306 14.5444444444444  C 0.147692307692306 15.8666666666667  1.23076923076923 16.9055555555556  2.60923076923077 16.9055555555556  C 3.05230769230769 16.9055555555556  3.44615384615385 16.8111111111111  3.84 16.575  L 14.72 10.5305555555556  C 15.5076923076923 10.1055555555556  15.9507692307692 9.35  15.9507692307692 8.5  C 15.9507692307692 7.65  15.5076923076923 6.89444444444444  14.72 6.46944444444445  Z M 13.9815384615385 8.5  C 13.9815384615385 8.59444444444445  13.9815384615385 8.78333333333334  13.7353846153846 8.925  L 2.85538461538461 14.9222222222222  C 2.56 15.1111111111111  2.11692307692308 14.9222222222222  2.11692307692308 14.4972222222222  L 2.11692307692308 2.45555555555556  C 2.11692307692308 2.17222222222222  2.36307692307692 1.98333333333333  2.60923076923077 1.98333333333333  C 2.70769230769231 1.98333333333333  2.75692307692308 1.98333333333333  2.85538461538461 2.03055555555555  L 13.7353846153846 8.075  C 13.9815384615385 8.21666666666667  13.9815384615385 8.40555555555555  13.9815384615385 8.5  Z " fill-rule="nonzero" fill="#ffffff" stroke="none" transform="matrix(1 0 0 1 48 565 )" />
  </g>
</svg>