<?xml version="1.0" encoding="utf-8"?>
<svg version="1.1" xmlns:xlink="http://www.w3.org/1999/xlink" width="52px" height="50px" xmlns="http://www.w3.org/2000/svg">
  <defs>
    <filter x="929px" y="8px" width="52px" height="50px" filterUnits="userSpaceOnUse" id="filter3133">
      <feOffset dx="0" dy="0" in="SourceAlpha" result="shadowOffsetInner" />
      <feGaussianBlur stdDeviation="5" in="shadowOffsetInner" result="shadowGaussian" />
      <feComposite in2="shadowGaussian" operator="atop" in="SourceAlpha" result="shadowComposite" />
      <feColorMatrix type="matrix" values="0 0 0 0 0  0 0 0 0 0  0 0 0 0 0  0 0 0 0.313725490196078 0  " in="shadowComposite" />
    </filter>
    <g id="widget3134">
      <path d="M 25.2051948051948 14.9553879310345  L 19.7025974025974 9.33491379310345  C 19.5292640632237 9.16961372483192  19.2985215393206 9.07733791153587  19.0585097821634 9.07733791153587  C 18.544239437191 9.07733791153587  18.1273409509945 9.49243942149878  18.1273409509945 10.0044930839497  C 18.1273409509945 10.2433121850852  18.2198939340588 10.4729206649928  18.3857142857143 10.645474137931  L 21.7545454545455 14  L 1.12857142857143 14  C 0.614301083599119 13.9991379310345  0.197402597402598 14.4142394409974  0.197402597402598 14.9262931034483  C 0.197402597402598 15.4383467658992  0.614301083599119 15.8534482758621  1.12857142857143 15.8534482758621  L 21.812987012987 15.8534482758621  L 18.3857142857143 19.2640086206897  C 18.2108031015352 19.4376051678213  18.1124915436035 19.67338940062  18.1124915436035 19.9192887931034  C 18.1124915436035 20.1651881855869  18.2108031015352 20.4009724183856  18.3857142857143 20.5745689655172  C 18.5601992918521 20.7489636764597  18.797251024866 20.8469934297256  19.0444805194805 20.8469934297256  C 19.291710014095 20.8469934297256  19.5287617471089 20.7489636764597  19.7032467532467 20.5745689655172  L 25.2051948051948 14.9553879310345  Z M 14.2474025974026 8.43038793103448  L 14.2474025974026 3.11702586206897  C 14.2474025974026 2.49762931034483  14.7519480519481 1.99590517241379  15.374025974026 2  L 28.9298701298701 2  C 29.5519480519481 1.99590517241379  30.0558441558442 2.49827586206896  30 3.11702586206897  L 30 26.8202586206897  C 30.0266233766234 27.4403017241379  29.5227272727273 27.942025862069  28.9006493506493 28  L 15.3746753246753 28  C 14.7524584149634 27.942025862069  14.2480519480519 27.4397935609632  14.2480519480519 26.8202586206897  L 14.2480519480519 21.548275862069  L 12.3727272727273 21.548275862069  L 12.3727272727273 27.951724137931  C 12.3730857482589 28.9755789596051  13.206777665784 29.805388043792  14.2350648218982 29.805388043792  L 30.0694805194805 29.8053879310345  C 31.0984171394108 29.805388043792  31.9321090569359 28.9755789596051  32 27.951724137931  L 32 1.99655172413793  C 31.9321089943767 0.972339821840527  31.0981263020216 0.14224131709482  30.0694805194805 0.142241379310344  L 14.2350649350649 0.142241379310344  C 13.205874894471 0.142241266592119  12.3720779220779 0.972444286517949  12.3720779220779 1.99655161141971  L 12.3720779220779 8.42780172413793  L 14.2474025974026 8.43038793103448  Z " fill-rule="nonzero" fill="#000000" stroke="none" transform="matrix(1 0 0 1 939 18 )" />
    </g>
  </defs>
  <g transform="matrix(1 0 0 1 -929 -8 )">
    <use xlink:href="#widget3134" filter="url(#filter3133)" />
    <use xlink:href="#widget3134" />
  </g>
</svg>