<?xml version="1.0" encoding="utf-8"?>
<svg version="1.1" xmlns:xlink="http://www.w3.org/1999/xlink" width="51px" height="50px" xmlns="http://www.w3.org/2000/svg">
  <defs>
    <filter x="489px" y="15px" width="51px" height="50px" filterUnits="userSpaceOnUse" id="filter3137">
      <feOffset dx="0" dy="0" in="SourceAlpha" result="shadowOffsetInner" />
      <feGaussianBlur stdDeviation="5" in="shadowOffsetInner" result="shadowGaussian" />
      <feComposite in2="shadowGaussian" operator="atop" in="SourceAlpha" result="shadowComposite" />
      <feColorMatrix type="matrix" values="0 0 0 0 0  0 0 0 0 0  0 0 0 0 0  0 0 0 0.313725490196078 0  " in="shadowComposite" />
    </filter>
    <g id="widget3138">
      <path d="M 0.105268998579545 28.6592371323529  C 0.105268998579545 27.9526654411765  0.683216441761364 27.3736213235294  1.38844992897727 27  L 29.6115500710227 27  C 30.3167835582386 27.3736213235294  30.8947310014205 27.9526654411765  30.8947310014205 28.6592371323529  C 30.8947310014205 29.3658088235294  30.3167835582386 29.9448529411765  29.6115500710227 30  L 1.38844992897727 30  C 0.683216441761364 29.9448529411765  0.105268998579545 29.3658088235294  0.105268998579545 28.6592371323529  Z M 11.3511629971591 23.6580882352941  L 24.317138671875 10.6468290441176  C 25.9340154474432 9.0234375  26.209228515625 6.65211397058823  24.9329279119318 5.37339154411765  L 20.4125532670455 0.854779411764706  C 19.1362526633523 -0.423943014705882  16.7659801136364 -0.141314338235294  15.1491033380682 1.48207720588235  L 2.18656782670455 14.4967830882353  C 1.990478515625 14.6966911764706  1.81159002130682 14.9034926470588  1.65678267045455 15.1206341911765  C 1.47789417613636 15.2998621323529  1.35060813210227 15.5376838235294  1.31276633522727 15.8065257352941  L 0.119029651988637 24.2061121323529  C 0.0571067116477276 24.6403952205882  0.235995205965909 25.0574448529412  0.552490234375 25.3193933823529  C 0.813942649147727 25.6364889705882  1.23020241477273 25.8157169117647  1.66366299715909 25.7536764705882  L 10.0439009232955 24.5404411764706  C 10.3122336647727 24.5025275735294  10.5496049360795 24.375  10.7284934303977 24.1923253676471  C 10.9452237215909 24.0337775735294  11.1550736860795 23.8579963235294  11.3511629971591 23.6580882352941  Z M 9.18730024857955 22.1932444852941  L 2.73355379971591 23.1307444852941  L 3.65207741477273 16.6578584558824  C 3.69679953835227 16.5751378676471  3.74496182528409 16.4924172794118  3.79656427556818 16.4096966911765  L 9.43499200994318 22.0484834558823  C 9.35586825284091 22.1036305147059  9.27330433238636 22.1518841911765  9.18730024857955 22.1932444852941  Z M 19.1259321732955 12.3977481617647  L 11.1963556463068 20.3596047794118  L 5.48224431818182 14.6449908088235  L 13.4118208451705 6.68313419117647  L 19.1259321732955 12.3977481617647  Z M 16.63525390625 3.44669117647059  C 17.4368119673295 2.64361213235294  18.5548650568182 2.44370404411765  19.1190518465909 3.00896139705882  L 22.7828258167614 6.67279411764706  C 23.3470126065341 7.23805147058824  23.1543634588068 8.35477941176471  22.3528053977273 9.16130514705882  L 20.8494540127841 10.6709558823529  L 15.1319025213068 4.95634191176471  L 16.63525390625 3.44669117647059  Z " fill-rule="nonzero" fill="#333333" stroke="none" transform="matrix(1 0 0 1 499 25 )" />
    </g>
  </defs>
  <g transform="matrix(1 0 0 1 -489 -15 )">
    <use xlink:href="#widget3138" filter="url(#filter3137)" />
    <use xlink:href="#widget3138" />
  </g>
</svg>