<?xml version="1.0" encoding="utf-8"?>
<svg version="1.1" xmlns:xlink="http://www.w3.org/1999/xlink" width="50px" height="50px" xmlns="http://www.w3.org/2000/svg">
  <defs>
    <filter x="732px" y="15px" width="50px" height="50px" filterUnits="userSpaceOnUse" id="filter3139">
      <feOffset dx="0" dy="0" in="SourceAlpha" result="shadowOffsetInner" />
      <feGaussianBlur stdDeviation="5" in="shadowOffsetInner" result="shadowGaussian" />
      <feComposite in2="shadowGaussian" operator="atop" in="SourceAlpha" result="shadowComposite" />
      <feColorMatrix type="matrix" values="0 0 0 0 0  0 0 0 0 0  0 0 0 0 0  0 0 0 0.313725490196078 0  " in="shadowComposite" />
    </filter>
    <g id="widget3140">
      <path d="M 25.115995718149 27.6901938100962  C 25.9000622746394 27.6286983924279  26.3074693509615 27.4057774939904  26.8686150090144 26.8600057091346  C 27.2913959585336 26.36035546875  27.6603684645433 25.6454713040865  27.7064900841346 25.1150733173077  L 29.7819603365385 6.46658879206731  C 29.8972642728365 4.7370302734375  28.721164438101 3.39950495793269  27.1914659705529 3.23039257812501  C 25.6694544771635 3.06128019831731  24.1243821364183 4.2911884765625  23.9552697566106 5.82088694411058  L 22.548562124399 18.4043861929087  L 5.21454214242788 1.06267923677885  C 4.06919005408654 -0.0826728515624982  2.21664070012019 -0.0826728515624982  1.07128853665865 1.06267923677885  C -0.0740635516826908 2.2080313251202  -0.0740635516826908 4.06058067908654  1.07128853665865 5.20593276742789  L 18.40530859375 22.5399528245192  L 5.82180934495192 23.9389734825721  C 4.2997978515625 24.1080858623798  3.11601111778846 25.6454712289663  3.23131497896635 27.1751696965144  C 3.35430581430288 28.8355458984375  4.94549969951923 29.9347764423077  6.46751119290866 29.7656640625  L 25.115995718149 27.6901938100962  Z " fill-rule="nonzero" fill="#333333" stroke="none" transform="matrix(1 0 0 1 742 25 )" />
    </g>
  </defs>
  <g transform="matrix(1 0 0 1 -732 -15 )">
    <use xlink:href="#widget3140" filter="url(#filter3139)" />
    <use xlink:href="#widget3140" />
  </g>
</svg>