<?xml version="1.0" encoding="utf-8"?>
<svg version="1.1" xmlns:xlink="http://www.w3.org/1999/xlink" width="49px" height="43px" xmlns="http://www.w3.org/2000/svg">
  <defs>
    <filter x="864px" y="22px" width="49px" height="43px" filterUnits="userSpaceOnUse" id="filter3143">
      <feOffset dx="0" dy="0" in="SourceAlpha" result="shadowOffsetInner" />
      <feGaussianBlur stdDeviation="5" in="shadowOffsetInner" result="shadowGaussian" />
      <feComposite in2="shadowGaussian" operator="atop" in="SourceAlpha" result="shadowComposite" />
      <feColorMatrix type="matrix" values="0 0 0 0 0  0 0 0 0 0  0 0 0 0 0  0 0 0 0.313725490196078 0  " in="shadowComposite" />
    </filter>
    <g id="widget3144">
      <path d="M 28.9852267235825 9.73846750827815  C 28.9852267235825 4.45895721233444  24.746610220683 0.143690500827817  19.5689271907216 0.143690500827815  L 15.2687067090851 0.143690500827815  L 15.2687067090851 2.3604214093543  L 19.5689271907216 2.3604214093543  C 20.5406350676546 2.3604214093543  21.4833511195232 2.55623318501656  22.3753241784794 2.94047883899007  C 23.2382762161727 3.31362789735099  24.0141651900773 3.84932869412252  24.6813859133376 4.52913648592715  C 25.3485190480026 5.2089145281457  25.8742841897552 5.99956927773179  26.2404921069588 6.87890754346027  C 26.6175610099871 7.78406844991722  26.8097595844072 8.7483417839404  26.8097595844072 9.73849725786424  L 26.8097595844072 13.3000582057119  C 26.8097595844072 14.2901839300497  26.6175902061856 15.2507683153974  26.2404921069588 16.1596479201159  C 25.8742841897552 17.0389564362583  25.348548244201 17.8295516866722  24.6813859133376 18.509418977649  C 24.0142527786727 19.1891970198675  23.2383054123711 19.7249275662252  22.3753241784794 20.0980766245861  C 21.4870006443299 20.4822925289735  20.5406642638531 20.6781340542219  19.5689271907216 20.6781340542219  L 9.4274524806701 20.6781340542219  C 8.45574460373711 20.6781340542219  7.51302855186856 20.4823222785596  6.62105549291237 20.0980766245861  C 5.75810345521907 19.7249275662252  4.98221448131443 19.1892267694536  4.31499375805412 18.509418977649  C 3.64786062338917 17.8296409354305  3.1220954816366 17.0389861858444  2.75588756443299 16.1596479201159  C 2.41867147229381 15.3505186775662  2.23015161887886 14.5008109995861  2.19388994039948 13.6251616825331  L 0.0183936050257718 13.6251616825331  C 0.188811815399483 18.7532168356788  4.35490496134021 22.8948054635762  9.4274524806701 22.8948054635762  L 19.5689271907216 22.8948054635762  C 24.7466394168814 22.8948054635762  28.9852267235825 18.575849803394  28.9852267235825 13.3000284561258  L 28.9852267235825 9.73846750827815  Z " fill-rule="nonzero" fill="#333333" stroke="none" transform="matrix(1 0 0 1 874 32 )" />
    </g>
  </defs>
  <g transform="matrix(1 0 0 1 -864 -22 )">
    <use xlink:href="#widget3144" filter="url(#filter3143)" />
    <use xlink:href="#widget3144" />
  </g>
</svg>