<?xml version="1.0" encoding="utf-8"?>
<svg version="1.1" xmlns:xlink="http://www.w3.org/1999/xlink" width="37px" height="37px" xmlns="http://www.w3.org/2000/svg">
  <g>
    <path d="M 36.9919660097773 18.5469247099551  C 36.9919660097773 7.87095581376309  29.2237571154566 0.10279118754679  18.547832487369 0.10279118754679  C 7.87190790255426 0.10279118754679  0.103698964960701 7.87100012514035  0.103698964960701 18.5469690213323  C 0.103698964960701 29.2229379175243  7.87190790255427 36.9911025437406  18.547832487369 36.9911025437406  C 29.2237570721838 36.9911025437406  36.9919660097773 29.2228936061471  36.9919660097773 18.5469247099551  Z M 35.9451353398672 18.5459948201254  C 35.9451353398672 28.1556686681325  28.1549823177863 35.9458216902133  18.5456184330558 35.9458216902133  C 8.93598885315307 35.9458216902133  1.1461457943488 28.1556686681325  1.1461457943488 18.5459948201254  C 1.1461457943488 8.93663093539483  8.93598885315307 1.14647791331399  18.5456184330558 1.14647791331399  C 28.1549823177863 1.14647791331399  35.9451353398672 8.93663093539483  35.9451353398672 18.5459948201254  Z M 16 11.9422721299588  C 15.3260982503743 11.3196320242328  14.8210694107878 10.8146917208552  14.1984293050617 10.8146917208552  C 13.5757891993357 10.8146917208552  13.0708046278537 11.3196320242328  13 11.9423163980633  L 13 25.1516215580558  C 13.0708046278537 25.7743059751591  13.5757891993357 26.2792905466411  14.1984293050617 26.2792905466411  C 14.8210694107878 26.2792905466411  15.3260539822698 25.7743059751591  16 25.1516215580558  L 16 11.9422721299588  Z M 24 11.9422721299588  C 24.0248161220528 11.3196320242328  23.5198758186752 10.8146917208552  22.8972357129491 10.8146917208552  C 22.2745956072231 10.8146917208552  21.769611035741 11.3196320242328  21.769611035741 11.9423163980633  L 21.769611035741 25.1516215580558  C 21.769611035741 25.7743059751591  22.2745956072231 26.2792905466411  22.8972357129491 26.2792905466411  C 23.5199201300524 26.2792905466411  24.0248603901572 25.7743059751591  24 25.1516215580558  L 24 11.9422721299588  Z " fill-rule="nonzero" fill="#ffffff" stroke="none" />
  </g>
</svg>