<?xml version="1.0" encoding="utf-8"?>
<svg version="1.1" xmlns:xlink="http://www.w3.org/1999/xlink" width="37px" height="37px" xmlns="http://www.w3.org/2000/svg">
  <g>
    <path d="M 18.4865545698686 36.9638731752232  C 8.35739828102805 36.9638731752232  0.146274493963068 28.7058286808036  0.146274493963068 18.5187914988839  C 0.146274493963068 8.33175431696429  8.35735627663352 0.0737098225446429  18.4865545698686 0.0737098225446429  C 28.6157528631037 0.0737098225446429  36.8268346457741 8.33175431696428  36.8268346457741 18.5187914988839  C 36.8268346457741 28.7058286808036  28.6157108587092 36.9638731752232  18.4865545698686 36.9638731752232  Z M 18.4865545698686 1.22694737834821  C 8.99046790327593 1.22694737834821  1.29253939652877 8.96886408928571  1.29253939652877 18.5192140669643  C 1.29253939652877 28.0694795558036  8.99046794433594 35.8114385111607  18.4865545698686 35.8114385111607  C 27.9826411954013 35.8114385111607  35.6805697432085 28.0694795558036  35.6805697432085 18.5192140669643  C 35.6805697432085 8.96886408928571  27.9825991910067 1.22694737834821  18.4865545698686 1.22694737834821  Z M 25.7125905573065 19.5278901863839  C 25.1184706287731 19.8814127979911  15.4875095348011 25.4948834073661  14.7844396095969 25.8883812154018  C 14.2693956431996 26.1769547042411  13.5231743119673 25.7607648705357  13.5231743119673 25.1044281473214  C 13.5231743119673 24.4381187678571  13.5231743119673 12.7447017421875  13.5231743119673 12.2851139229911  C 13.5231743119673 11.6891202767857  14.1803616832386 11.1230446819196  14.7844396095969 11.4716231685268  C 15.2685591031161 11.7509423627232  24.8869151422674 17.3498343113839  25.7125905573065 17.8320719118304  C 26.2547774924538 18.1487464051339  26.2456177834251 19.2112580200893  25.7125905573065 19.5278901863839  Z " fill-rule="nonzero" fill="#ffffff" stroke="none" />
  </g>
</svg>