<?xml version="1.0" encoding="utf-8"?>
<svg version="1.1" xmlns:xlink="http://www.w3.org/1999/xlink" width="70px" height="50px" xmlns="http://www.w3.org/2000/svg">
  <defs>
    <filter x="702px" y="8px" width="70px" height="50px" filterUnits="userSpaceOnUse" id="filter2816">
      <feOffset dx="0" dy="0" in="SourceAlpha" result="shadowOffsetInner" />
      <feGaussianBlur stdDeviation="5" in="shadowOffsetInner" result="shadowGaussian" />
      <feComposite in2="shadowGaussian" operator="atop" in="SourceAlpha" result="shadowComposite" />
      <feColorMatrix type="matrix" values="0 0 0 0 0  0 0 0 0 0  0 0 0 0 0  0 0 0 0.313725490196078 0  " in="shadowComposite" />
    </filter>
    <g id="widget2817">
      <path d="M 33.4755669964801 0.612922125860097  C 34.2549294943338 -0.167870394925453  35.6188137985062 -0.167870394925453  36.3981762963599 0.612922125860092  L 48.9653963126717 13.2032012614679  C 49.2576572694883 13.3983994051032  49.4524978537088 13.6911965668005  49.6473384915865 14.0815928003154  C 49.7447588105254 14.3743900157683  49.7447588105254 14.5695881056479  49.7447588105254 14.7647862492833  L 49.7447588105254 15.0575834647362  C 49.7447588105254 15.1551825365539  49.6473384915865 15.3503806801892  49.6473384915865 15.4479796982512  C 49.6473384915865 15.6431778418865  49.5499181726477 15.7407769137041  49.4524978537088 15.9359750035837  L 49.257657215831 16.131173147219  C 49.257657215831 16.2287722190367  49.257657215831 16.3263712908544  49.1602369505494 16.3263712908544  L 36.3981762963599 29.1118485163418  C 35.6188137985062 29.990240108945  34.2549294943338 29.990240108945  33.4755669964801 29.1118485163418  C 32.5987841796875 28.3310559955562  32.5987841796875 26.9646691513761  33.4755669964801 26.1838766305906  L 42.6330761182177 17  L 22.1748110190591 17  C 21.0057672991071 17.0095646860665  20.031564217033 16.0335740754014  20.0315641633757 14.8623853211009  C 20.0315641097184 13.6911965668005  21.0057672454499 12.7152059561353  22.1748110190591 13  L 42.5356558529361 13  L 33.4755669964801 3.6384930834289  C 32.5987841796875 2.7601014908257  32.5987841796875 1.49131371846331  33.4755669964801 0.612922125860097  Z M 12.3353596647493 12.7152059561353  C 13.5044033847012 12.7152059561353  14.3811862014938 13.6911965668005  14.3811862014938 14.8623853211009  C 14.3811862014938 16.0335740754014  13.5044033847012 17.0095646860665  12.3353596647493 17.0095646860665  C 11.1663159447974 17.0095646860665  10.1921128627232 16.0335740754014  10.1921128627232 14.8623853211009  C 10.1921128627232 13.6911965668005  11.1663159447974 12.7152059561353  12.3353596647493 12.7152059561353  Z M 2.39848804515797 12.7152059561353  C 3.56753181876717 12.7152059561353  4.54173484718407 13.6911965668005  4.54173484718407 14.8623853211009  C 4.54173484718407 16.0335740754014  3.56753176510989 17.0095646860665  2.39848804515797 17.0095646860665  C 1.22944432520604 17.0095646860665  0.255241243131867 16.0335740754014  0.255241189474587 14.8623853211009  C 0.255241135817307 13.6911965668005  1.22944427154876 12.7152059561353  2.39848804515797 12.7152059561353  Z " fill-rule="nonzero" fill="#000000" stroke="none" fill-opacity="0.96078431372549" transform="matrix(1 0 0 1 712 18 )" />
    </g>
  </defs>
  <g transform="matrix(1 0 0 1 -702 -8 )">
    <use xlink:href="#widget2817" filter="url(#filter2816)" />
    <use xlink:href="#widget2817" />
  </g>
</svg>