<?xml version="1.0" encoding="utf-8"?>
<svg version="1.1" xmlns:xlink="http://www.w3.org/1999/xlink" width="46px" height="50px" xmlns="http://www.w3.org/2000/svg">
  <defs>
    <filter x="43px" y="8px" width="46px" height="50px" filterUnits="userSpaceOnUse" id="filter2820">
      <feOffset dx="0" dy="0" in="SourceAlpha" result="shadowOffsetInner" />
      <feGaussianBlur stdDeviation="5" in="shadowOffsetInner" result="shadowGaussian" />
      <feComposite in2="shadowGaussian" operator="atop" in="SourceAlpha" result="shadowComposite" />
      <feColorMatrix type="matrix" values="0 0 0 0 0  0 0 0 0 0  0 0 0 0 0  0 0 0 0.313725490196078 0  " in="shadowComposite" />
    </filter>
    <g id="widget2821">
      <path d="M 18.514296875 0.468715839284691  C 18.76294570457 0.468715839284691  19.0014098191803 0.567494508890308  19.1772265625 0.7433203125  L 24.480546875 6.046640625  C 24.6563726786097 6.22245736831969  24.7551513482153 6.46092148292999  24.7551513482153 6.7095703125  C 24.7551513482153 6.95821914207001  24.6563726786097 7.19668325668031  24.480546875 7.3725  L 9.121484375 22.731328125  C 8.99104167169238 22.8617828867889  8.82500913728389 22.9508526357902  8.6441796875 22.9873828125  C 5.6957421875 23.584453125  3.48265625 24.032109375  2.0052734375 24.3303515625  C 1.7758203125 24.376640625  0.8474609375 23.4594140625  0.893632812499999 23.2308984375  L 2.2363671875 16.5795703125  C 2.27289736420977 16.3987408627161  2.36196711321113 16.2327083283076  2.492421875 16.102265625  L 17.8513671875 0.7433203125  C 18.0271839308197 0.567494508890309  18.26564804543 0.468715839284691  18.514296875 0.468715839284691  Z M 8.1959375 21.005390625  L 22.4917578125 6.7095703125  L 18.5144140625 2.732109375  L 4.218359375 17.0279296875  C 4.08788446876967 17.1584042044189  3.9988132386659 17.3244802645758  3.9623046875 17.5053515625  L 3.012265625 22.2116015625  L 7.718515625 21.2614453125  C 7.89934507478388 21.2249151357902  8.06537760919238 21.1358453867889  8.1958203125 21.005390625  Z M 14.536953125 6.7095703125  L 15.8626953125 5.3837109375  L 19.8400390625 9.361171875  L 18.514296875 10.68703125  L 14.536953125 6.7095703125  Z M 1.8125 24.3515625  C 1.29473304703363 24.3515625  0.875 23.9318294529664  0.875 23.4140625  C 0.875 22.8962955470336  1.29473304703363 22.4765625  1.8125 22.4765625  C 2.33026695296637 22.4765625  2.75 22.8962955470336  2.75 23.4140625  C 2.75 23.9318294529664  2.33026695296637 24.3515625  1.8125 24.3515625  Z M 8.0884765625 27.846796875  C 6.3095703125 28.5017578125  4.78765625 27.8555859375  3.805625 26.0895703125  L 5.444375 25.1784375  C 5.993984375 26.16703125  6.5652734375 26.409609375  7.44078125 26.08734375  C 8.1115625 25.8403125  8.482578125 25.6096875  9.119140625 25.099921875  C 9.77 24.57890625  9.9648828125 24.432890625  10.40609375 24.16828125  C 10.8133203125 23.924296875  11.26203125 23.705390625  11.7843359375 23.501484375  C 12.52578125 23.2123828125  13.231015625 23.3237109375  13.8030078125 23.793515625  C 14.1817578125 24.10453125  14.4490625 24.499453125  14.7939453125 25.152421875  C 14.854296875 25.2666796875  15.09125 25.72828125  15.1511328125 25.8416015625  C 15.8755859375 27.2136328125  16.3619140625 27.56390625  17.4796484375 27.22734375  C 19.9429296875 26.485546875  22.35171875 25.28109375  24.7077734375 23.610234375  L 25.79234375 25.139765625  C 23.274921875 26.925  20.6837890625 28.220625  18.0203515625 29.02265625  C 16.8393359375 29.3783203125  15.8234375 29.2376953125  14.9945703125 28.640859375  C 14.3871875 28.2033984375  13.9748046875 27.62953125  13.493046875 26.717109375  C 13.426484375 26.591015625  13.18953125 26.12953125  13.1359765625 26.028046875  C 12.9021875 25.5853125  12.74140625 25.347890625  12.61296875 25.242421875  C 12.5657421875 25.2036328125  12.5762890625 25.2052734375  12.4656640625 25.2483984375  C 12.0402734375 25.4143359375  11.686015625 25.5871875  11.370078125 25.7765625  C 11.0270703125 25.9822265625  10.87390625 26.096953125  10.291015625 26.56359375  C 9.5103125 27.1887890625  8.97921875 27.5190234375  8.0884765625 27.846796875  Z " fill-rule="nonzero" fill="#000000" stroke="none" transform="matrix(1 0 0 1 53 18 )" />
    </g>
  </defs>
  <g transform="matrix(1 0 0 1 -43 -8 )">
    <use xlink:href="#widget2821" filter="url(#filter2820)" />
    <use xlink:href="#widget2821" />
  </g>
</svg>