<?xml version="1.0" encoding="utf-8"?>
<svg version="1.1" xmlns:xlink="http://www.w3.org/1999/xlink" width="50px" height="50px" xmlns="http://www.w3.org/2000/svg">
  <defs>
    <filter x="944px" y="15px" width="50px" height="50px" filterUnits="userSpaceOnUse" id="filter2826">
      <feOffset dx="0" dy="0" in="SourceAlpha" result="shadowOffsetInner" />
      <feGaussianBlur stdDeviation="5" in="shadowOffsetInner" result="shadowGaussian" />
      <feComposite in2="shadowGaussian" operator="atop" in="SourceAlpha" result="shadowComposite" />
      <feColorMatrix type="matrix" values="0 0 0 0 0  0 0 0 0 0  0 0 0 0 0  0 0 0 0.313725490196078 0  " in="shadowComposite" />
    </filter>
    <g id="widget2827">
      <path d="M 29.5511414634146 29.3110243902439  C 28.8168585365854 30.0453073170732  27.9884974829268 30.2442830048781  27.0258076097561 29.281623102439  L 14.9853658536585 17.1506397658537  L 3.10547730731707 29.3311347512195  C 2.41264390243902 30.0303219512195  1.56728944390244 30.2313356487805  0.659356097560976 29.4009365853659  C -0.262243902439024 28.4793365853659  -0.145238165853659 27.6238520195122  0.702184273170732 26.7763996097561  L 12.5087943804878 14.6738285268293  L 0.939942087804878 3.10407711219512  C 0.139873404878049 2.28242950243902  0.169844136585366 1.23345389268293  0.959063414634146 0.524136585365853  C 1.82821463414634 -0.18518072195122  2.98709291707317 -0.125239258536586  3.72086634146341 0.622620409756097  L 14.9853658536585 11.8973399414634  L 26.2545408 0.627295843902438  C 26.8537756097561 0.0146341463414625  28.1125463414634 -0.345014634146342  29.1465365853659 0.584078048780487  C 30.0756292682927 1.54314146341463  29.8828575219512 2.55633201951219  29.0354650536585 3.40378442926829  L 17.4619373268293 14.6738285268293  L 29.3339136 26.6363463804878  C 29.9856571317073 27.2880599414634  30.3004097560976 28.561756097561  29.5511414634146 29.3110243902439  Z " fill-rule="nonzero" fill="#000000" stroke="none" transform="matrix(1 0 0 1 954 25 )" />
    </g>
  </defs>
  <g transform="matrix(1 0 0 1 -944 -15 )">
    <use xlink:href="#widget2827" filter="url(#filter2826)" />
    <use xlink:href="#widget2827" />
  </g>
</svg>