<?xml version="1.0" encoding="utf-8"?>
<svg version="1.1" xmlns:xlink="http://www.w3.org/1999/xlink" width="60px" height="60px" xmlns="http://www.w3.org/2000/svg">
  <g transform="matrix(1 0 0 1 -482 -630 )">
    <path d="M 60 30  C 60 13.41  46.56 0  30 0  C 13.44 0  0 13.44  0 30  C 0 46.56  13.44 60  30 60  C 46.56 60  60 46.56  60 30  Z M 55.02 29.97  C 55.02 43.8  43.83 54.99  30 54.99  C 16.17 54.99  4.98 43.8  4.98 29.97  C 4.98 16.14  16.17 4.95  30 4.95  C 43.83 4.95  55.02 16.14  55.02 29.97  Z M 44.7 28.98  L 42.96 27.18  L 33.39 17.64  C 32.91 17.16  32.1 17.16  31.62 17.64  L 29.85 19.41  C 29.37 19.89  29.37 20.67  29.85 21.18  L 35.94 27.27  C 35.61 27.3  35.31 27.36  34.98 27.36  C 33.99 27.36  33.09 27.45  32.13 28  L 17.46 28  C 16.08 27.51  14.97 28.62  14.97 30  C 14.97 31.38  16.08 32.49  17.46 32  L 35.82 32  L 29.82 38.49  C 29.34 38.97  29.34 39.75  29.82 40.26  L 31.59 42.03  C 32.07 42.51  32.88 42.51  33.36 42.03  L 42.93 32.49  L 44.7 30.75  C 45.18 30.27  45.18 29.49  44.7 28.98  Z " fill-rule="nonzero" fill="#ffffff" stroke="none" transform="matrix(1 0 0 1 482 630 )" />
  </g>
</svg>