<?xml version="1.0" encoding="utf-8"?>
<svg version="1.1" xmlns:xlink="http://www.w3.org/1999/xlink" width="16px" height="18px" xmlns="http://www.w3.org/2000/svg">
  <g transform="matrix(1 0 0 1 -22 -21 )">
    <path d="M 15.7659846484375 17.2968747265625  C 15.9824778710937 17.0973699804687  15.9960087109375 16.7601386328125  15.7965239648438 16.5437253515625  L 12.761601640625 13.2518572460937  C 12.759303203125 13.2494388867188  12.756645 13.2477800195313  12.7543665429687 13.2454016210938  C 14.19123234375 11.875530390625  15.089663203125 9.9453990234375  15.089663203125 7.80798818359375  C 15.089663203125 3.66379794921875  11.7180491601562 0.292263847656251  7.57395884765625 0.292263847656251  C 3.42970865234375 0.292263847656251  0.0582145312499991 3.66377796875  0.0582145312499991 7.80798818359375  C 0.0582145312499991 11.9521784179688  3.42972865234375 15.3236925390625  7.57395884765625 15.3236925390625  C 9.05003806640625 15.3236925390625  10.4269045507812 14.8942237109375  11.5893763867188 14.1562240820312  C 11.609982421875 14.1940584375  11.6337263085938 14.23045375  11.6643055859375 14.2635713085937  L 14.699267890625 17.5553594726562  C 14.8987126757813 17.771792734375  15.2360439648438 17.7855234179687  15.4524172460937 17.5860586523437  L 15.7659846484375 17.2968747265625  Z M 7.5739388671875 14.3642630273438  C 3.95878994140625 14.3642830078125  1.0176640234375 11.4231171289062  1.0176640234375 7.80798818359375  C 1.0176640234375 4.19285923828125  3.95878994140625 1.25171333984375  7.5739388671875 1.25171333984375  C 11.1889878710937 1.25171333984375  14.1302137109375 4.19285923828125  14.1302137109375 7.80798818359375  C 14.1302137109375 11.4231171289063  11.1889878710937 14.3642630273438  7.5739388671875 14.3642630273438  Z " fill-rule="nonzero" fill="#1296db" stroke="none" transform="matrix(1 0 0 1 22 21 )" />
  </g>
</svg>