<?xml version="1.0" encoding="utf-8"?>
<svg version="1.1" xmlns:xlink="http://www.w3.org/1999/xlink" width="80px" height="62px" xmlns="http://www.w3.org/2000/svg">
  <defs>
    <filter x="116px" y="351px" width="80px" height="62px" filterUnits="userSpaceOnUse" id="filter3210">
      <feOffset dx="0" dy="0" in="SourceAlpha" result="shadowOffsetInner" />
      <feGaussianBlur stdDeviation="5" in="shadowOffsetInner" result="shadowGaussian" />
      <feComposite in2="shadowGaussian" operator="atop" in="SourceAlpha" result="shadowComposite" />
      <feColorMatrix type="matrix" values="0 0 0 0 0  0 0 0 0 0  0 0 0 0 0  0 0 0 0.313725490196078 0  " in="shadowComposite" />
    </filter>
    <g id="widget3211">
      <path d="M 30.8038563829787 41.6674342105263  C 30.547161911357 41.763149132035  30.2742394362671 41.8090508642305  30 41.8026315789474  C 29.7264210978638 41.8018345880483  29.4548397623777 41.7564918194332  29.1961436170213 41.6684210526316  L 1.50897606382979 31.0519736842105  C 0.638843258708331 30.7093048604779  0.0710599188658347 29.8726716152504  0 28.9460526315789  L 0 2.33684210526316  C 0.0797872340425532 2.33684210526316  0.0797872340425529 2.33684210526316  0.0797872340425529 2.33684210526316  C 0.0797872340425529 1.11654714979821  1.07955563011521 0.127302631578948  2.31283244680851 0.127302631578948  C 3.54610926350181 0.127302631578948  4.54587765957447 1.11654714979821  4.54587765957447 2.33684210526316  C 4.54587765957447 2.33684210526316  4.54587765957447 2.33684210526316  5 2.33684210526316  L 5 27.3779605263158  L 30 37.1476973684211  L 55 27.3779605263158  L 55 4.1279605263158  C 55.4541223404255 4.1279605263158  55.4541223404255 4.1279605263158  55.4541223404255 4.1279605263158  C 55.4541223404255 2.90766557085085  56.4538907364982 1.91842105263158  57.6871675531915 1.91842105263158  C 58.9204443698848 1.91842105263158  59.9202127659574 2.90766557085084  59.9202127659574 4.1279605263158  L 60 4.12796052631579  L 60 28.9450657894737  C 59.9160259157625 29.8678093999811  59.3526442912348 30.697956682853  58.4910239361702 31.0509868421053  L 30.8038563829787 41.6674342105263  Z " fill-rule="nonzero" fill="#ffffff" stroke="none" transform="matrix(1 0 0 1 126 361 )" />
    </g>
  </defs>
  <g transform="matrix(1 0 0 1 -116 -351 )">
    <use xlink:href="#widget3211" filter="url(#filter3210)" />
    <use xlink:href="#widget3211" />
  </g>
</svg>