<?xml version="1.0" encoding="utf-8"?>
<svg version="1.1" xmlns:xlink="http://www.w3.org/1999/xlink" width="60px" height="62px" xmlns="http://www.w3.org/2000/svg">
  <defs>
    <filter x="126px" y="339px" width="60px" height="62px" filterUnits="userSpaceOnUse" id="filter3208">
      <feOffset dx="0" dy="0" in="SourceAlpha" result="shadowOffsetInner" />
      <feGaussianBlur stdDeviation="5" in="shadowOffsetInner" result="shadowGaussian" />
      <feComposite in2="shadowGaussian" operator="atop" in="SourceAlpha" result="shadowComposite" />
      <feColorMatrix type="matrix" values="0 0 0 0 0  0 0 0 0 0  0 0 0 0 0  0 0 0 0.313725490196078 0  " in="shadowComposite" />
    </filter>
    <g id="widget3209">
      <path d="M 21.2827380952381 41.4444078947368  C 20.9109063649972 41.7156015270599  20.4610572296796 41.8602629891365  20 41.8569078947368  C 19.6994107420327 41.8669530954818  19.4008588683609 41.8043061155686  19.1299603174603 41.6743421052632  L 1.44742063492063 34.2917763157895  C 0.589024957941555 33.9437990389835  0.0275612279364213 33.1138364526184  0 32.1917763157895  L 0 2.48782894736842  C 0.0246810961077753 1.72361079777106  0.4018460672352 1.00759326703112  1.03472222222222 0.574342105263157  C 1.67457705774716 0.153752955238899  2.48530658177239 0.0849992375393062  3.1875 0.391776315789472  L 12.8988095238095 4.44769736842105  C 13.7071788125908 4.81857706106185  14.2249026811769 5.62324645254616  14.2249026811769 6.50877015014243  C 14.2249026811769 7.76231119416627  13.2033301857511 8.7785069922477  11.9431566494308 8.7785069922477  C 11.6751938498614 8.7785069922477  11.4093256004969 8.73155484761938  11.1577380952381 8.63980263157895  L 5 5.90526315789474  L 5 30.6493421052632  L 18 36.1174342105263  L 18 9.86743421052631  C 17.7135296643755 8.94705430140609  18.2742818484026 8.11912347001438  19.1309523809524 7.77138157894737  L 36.8134920634921 0.388815789473683  C 37.519331972455 0.104952691213574  38.3189218160032 0.172761711052677  38.9662698412698 0.571381578947367  C 39.6072304476747 0.997453850439202  39.9868462615973 1.71812411019911  40 2.48486842105263  L 40 32.1917763157895  C 39.9719862086404 33.1121562249097  39.4112340246133 33.9400870563014  38.5545634920635 34.2878289473684  L 28.8888888888889 38.2983552631579  C 28.6373013836301 38.3901074791983  28.3714331342657 38.4370596238266  28.1034703346963 38.4370596238266  C 26.843296798376 38.4370596238266  25.8217243029502 37.4208638257452  25.8217243029502 36.1673227817213  C 25.8217243029502 35.2817990841251  26.3394481715363 34.4771296926408  27.1478174603175 34.10625  L 35 30.6434210526316  L 35 5.90328947368421  L 22 11.3694078947368  L 22 39.5309210526316  C 22.2927792213525 40.2951392022289  21.9156142502251 41.0111567329689  21.2827380952381 41.4444078947368  Z " fill-rule="nonzero" fill="#ffffff" stroke="none" transform="matrix(1 0 0 1 136 349 )" />
    </g>
  </defs>
  <g transform="matrix(1 0 0 1 -126 -339 )">
    <use xlink:href="#widget3209" filter="url(#filter3208)" />
    <use xlink:href="#widget3209" />
  </g>
</svg>