<?xml version="1.0" encoding="utf-8"?>
<svg version="1.1" xmlns:xlink="http://www.w3.org/1999/xlink" width="74px" height="64px" xmlns="http://www.w3.org/2000/svg">
  <defs>
    <filter x="635px" y="339px" width="74px" height="64px" filterUnits="userSpaceOnUse" id="filter3212">
      <feOffset dx="0" dy="0" in="SourceAlpha" result="shadowOffsetInner" />
      <feGaussianBlur stdDeviation="5" in="shadowOffsetInner" result="shadowGaussian" />
      <feComposite in2="shadowGaussian" operator="atop" in="SourceAlpha" result="shadowComposite" />
      <feColorMatrix type="matrix" values="0 0 0 0 0  0 0 0 0 0  0 0 0 0 0  0 0 0 0.313725490196078 0  " in="shadowComposite" />
    </filter>
    <g id="widget3213">
      <path d="M 49.7993303571428 44  C 52.0819754464286 43.9451778017241  53.9352120535714 42.1301185344828  54 39.9075969827586  L 54 4.34725215517242  C 53.9352120535714 2.12473060344828  52.0819754464286 0.309671336206899  49.8068638392857 1  L 29.3986607142857 1  C 28.1330357142857 0.309671336206899  27.1084821428571 1.31721443965518  27.1084821428571 2.56182650862069  C 27.1084821428571 3.80643857758621  28.1330357142857 4.81398168103449  29.3986607142857 5  L 48.1720982142857 5  C 48.8199776785714 4.81398168103449  49.3397879464286 5.32516163793104  49 5.95487607758621  L 49 38.3147898706897  C 49.3397879464286 38.9445043103448  48.8124441964286 39.4556842672414  48.1720982142857 39  L 5.94693080357143 39  C 5.29905133928571 39.4556842672414  4.77924107142857 38.9445043103448  4.77924107142857 38.3147898706897  L 4.77924107142857 28.7134967672414  L 4.756640625 28.7134967672414  L 4.756640625 28.6320043103448  C 4.756640625 27.3873922413793  3.73208705357143 26.379849137931  2.46646205357143 26.379849137931  C 1.28370535714286 26.379849137931  0.304352678571427 27.2688577586207  1 28.40234375  L 1 40.1891163793103  C 0.342020089285713 42.2856950431035  2.12745535714286 43.9377693965517  4.30463169642857 44  L 49.7993303571428 44  Z " fill-rule="nonzero" fill="#ffffff" stroke="none" transform="matrix(1 0 0 1 645 349 )" />
    </g>
  </defs>
  <g transform="matrix(1 0 0 1 -635 -339 )">
    <use xlink:href="#widget3213" filter="url(#filter3212)" />
    <use xlink:href="#widget3213" />
  </g>
</svg>