<?xml version="1.0" encoding="utf-8"?>
<svg version="1.1" xmlns:xlink="http://www.w3.org/1999/xlink" width="84px" height="74px" xmlns="http://www.w3.org/2000/svg">
  <defs>
    <filter x="635px" y="339px" width="84px" height="74px" filterUnits="userSpaceOnUse" id="filter3214">
      <feOffset dx="0" dy="0" in="SourceAlpha" result="shadowOffsetInner" />
      <feGaussianBlur stdDeviation="5" in="shadowOffsetInner" result="shadowGaussian" />
      <feComposite in2="shadowGaussian" operator="atop" in="SourceAlpha" result="shadowComposite" />
      <feColorMatrix type="matrix" values="0 0 0 0 0  0 0 0 0 0  0 0 0 0 0  0 0 0 0.313725490196078 0  " in="shadowComposite" />
    </filter>
    <g id="widget3215">
      <path d="M 63 12.8998679577465  C 63.8132530120482 11.6594960387324  62.7816265060241 10.6419454225352  61.5165662650602 10.6419454225352  C 60.2515060240964 10.6419454225352  59.2198795180723 11.6520686619718  59 12.8998679577465  L 59 47.8159661091549  C 59.2198795180723 48.5512764084507  58.6099397590361 49.1454665492958  57.8644578313253 49  L 10.5978915662651 49  C 9.33283132530121 49.1454665492958  8.30120481927711 50.1555897887324  8.30120481927711 51.403389084507  C 8.30120481927711 52.6437610035211  9.33283132530121 53.6613116197183  10.5978915662651 53  L 57.8644578313253 53  C 61.1475903614458 53.6613116197183  63.8132530120482 51.0394476232394  63 47.8233934859155  L 63 12.8998679577465  Z M 0.341867469879517 14.5264634683099  C 0.341867469879517 15.7816901408451  1.37349397590361 16.7992407570423  2.6460843373494 16.7992407570423  C 2.71385542168675 16.7992407570423  2.78915662650602 16.7992407570423  2.85692771084337 16.7918133802817  L 12.2545180722892 16.7918133802817  L 12.2545180722892 26.0983164612676  C 12.2545180722892 26.142880721831  12.2469879518072 26.1874449823944  12.2469879518072 26.2394366197183  C 12.2469879518072 26.2840008802817  12.2469879518072 26.3285651408451  12.2545180722892 26.380556778169  L 12.2545180722892 26.4251210387324  C 12.3524096385542 27.5986465669014  13.3463855421687 28.5196412852113  14.558734939759 28.5196412852113  C 15.7710843373494 28.5196412852113  16.7650602409639 27.5986465669014  16.8629518072289 26.4251210387324  L 16.8704819277108 26.4251210387324  L 16.8704819277108 26.3062830105634  L 16.8704819277108 26.2394366197183  L 16.8704819277108 26.1280259683099  L 16.8102409638554 16.7992407570422  L 26.75 16.7992407570422  L 26.75 16.7918133802817  C 26.8328313253012 16.7992407570422  26.9231927710843 16.8066681338028  27.0135542168675 16.8066681338028  C 28.2861445783133 16.8066681338028  29.3177710843374 15.7891175176056  29.3177710843374 14.5338908450704  C 29.3177710843374 13.2786641725352  28.2861445783133 12.261113556338  27.0135542168675 12.261113556338  C 26.9231927710843 12.261113556338  26.8403614457831 12.2685409330986  26.75 12.2759683098591  L 26.75 12.2685409330986  L 16.8704819277108 12.2685409330986  L 16.8704819277108 2.63523327464789  L 16.8704819277108 2.58324163732394  C 16.8704819277108 1.32801496478873  15.8388554216868 0.310464348591551  14.566265060241 0.310464348591551  C 13.2936746987952 0.310464348591551  12.2620481927711 1.32801496478873  12.2620481927711 2.58324163732394  L 12.2620481927711 12.261113556338  L 2.85692771084337 12.261113556338  C 2.78915662650602 12.2536861795775  2.71385542168675 12.2536861795775  2.6460843373494 12.2536861795775  C 1.37349397590362 12.2536861795775  0.341867469879517 13.2712367957746  0.341867469879517 14.5264634683099  Z " fill-rule="nonzero" fill="#ffffff" stroke="none" transform="matrix(1 0 0 1 645 349 )" />
    </g>
  </defs>
  <g transform="matrix(1 0 0 1 -635 -339 )">
    <use xlink:href="#widget3215" filter="url(#filter3214)" />
    <use xlink:href="#widget3215" />
  </g>
</svg>