<?xml version="1.0" encoding="utf-8"?>
<svg version="1.1" xmlns:xlink="http://www.w3.org/1999/xlink" width="60px" height="60px" xmlns="http://www.w3.org/2000/svg">
  <defs>
    <filter x="760px" y="10px" width="60px" height="60px" filterUnits="userSpaceOnUse" id="filter3228">
      <feOffset dx="0" dy="0" in="SourceAlpha" result="shadowOffsetInner" />
      <feGaussianBlur stdDeviation="5" in="shadowOffsetInner" result="shadowGaussian" />
      <feComposite in2="shadowGaussian" operator="atop" in="SourceAlpha" result="shadowComposite" />
      <feColorMatrix type="matrix" values="0 0 0 0 0  0 0 0 0 0  0 0 0 0 0  0 0 0 0.313725490196078 0  " in="shadowComposite" />
    </filter>
    <g id="widget3229">
      <path d="M 27.6077701162802 38.5637426900585  C 25.1250569763269 39.4619883040936  22.5430353107756 39.9610136452242  19.861705119626 39.9610136452242  C 16.2865981980934 39.9610136452242  12.7114912765607 38.962962962963  9.63292698301863 37.1664717348928  C 9.5336184574205 37.1664717348928  9.33500140622424 37.1664717348928  8.73915025263546 37.2662768031189  C 8.14329909904668 37.366081871345  7.5474479454579 37.5656920077973  6.85228826627098 37.8651072124756  C 6.05782006148594 38.164522417154  5.16404333110277 38.4639376218324  4.36957512631773 38.5637426900585  C 3.57510692153269 38.6635477582846  2.48271313995325 38.8631578947368  1.78755346076634 38.0647173489279  C 0.794468204785041 36.9668615984405  1.39031935837382 35.0705653021442  2.08547903756073 32.9746588693957  C 2.28409608875699 32.375828460039  2.48271313995325 31.6771929824561  2.68133019114951 31.0783625730994  C 2.78063871674765 30.4795321637427  2.78063871674765 30.2799220272904  2.78063871674765 30.1801169590643  C 0.993085255981302 27.0861598440546  0 23.5929824561404  0 20  C 0 17.3052631578947  0.496542627990651 14.7103313840156  1.58893640957008 12.2152046783626  C 2.58202166555138 9.81988304093567  3.97234102392521 7.72397660818713  5.85920301028968 5.82768031189084  C 7.64675647105603 4.03118908382066  9.83154403421489 2.53411306042885  12.21494864857 1.53606237816764  C 14.5983532629251 0.538011695906434  17.1803749284765 0.0389863547758296  19.861705119626 0.0389863547758296  C 22.5430353107756 0.0389863547758296  25.1250569763269 0.538011695906434  27.6077701162802 1.63586744639376  C 29.9911747306353 2.63391812865497  32.0766537681961 4.03118908382066  33.9635157545605 5.92748538011696  C 35.7510692153269 7.72397660818713  37.2406970992988 9.91968810916179  38.2337823552801 12.3150097465887  C 39.2268676112614 14.8101364522417  39.8227187648502 17.4050682261209  39.8227187648502 20.0998050682261  C 39.8227187648502 22.7945419103314  39.3261761368596 25.3894736842105  38.2337823552801 27.8846003898636  C 37.2406970992988 30.2799220272905  35.7510692153269 32.375828460039  33.9635157545605 34.2721247563353  C 32.1759622937942 36.0686159844055  29.9911747306353 37.5656920077973  27.6077701162802 38.5637426900585  Z M 6.15712858708407 35.5695906432749  C 7.44813941985977 35.1703703703704  8.63984172703733 34.7711500974659  9.5336184574205 34.7711500974659  C 10.0301610854112 34.7711500974659  10.4273951878037 34.870955165692  10.7253207645981 35.0705653021442  C 13.4066509557476 36.7672514619883  16.5845237748877 37.5656920077973  19.7623965940279 37.5656920077973  C 22.145801208383 37.5656920077973  24.42989729714 37.0666666666667  26.6146848602989 36.1684210526316  C 28.7001638978596 35.2701754385965  30.5870258842241 33.9727095516569  32.1759622937942 32.375828460039  C 33.7648987033643 30.778947368421  35.05590953614 28.8826510721248  35.9496862665231 26.7867446393762  C 36.8434629969063 24.5910331384016  37.340005624897 22.2955165692008  37.340005624897 19.9001949317739  C 37.340005624897 17.504873294347  36.8434629969063 15.2093567251462  35.9496862665231 13.0136452241715  C 35.05590953614 10.917738791423  33.7648987033643 9.0214424951267  32.1759622937942 7.42456140350877  C 30.5870258842241 5.82768031189084  28.7001638978596 4.53021442495127  26.6146848602989 3.63196881091618  C 24.42989729714 2.73372319688109  22.145801208383 2.23469785575049  19.7623965940279 2.23469785575049  C 17.3789919796728 2.23469785575049  15.0948958909158 2.73372319688109  12.9101083277569 3.63196881091618  C 10.8246292901962 4.53021442495127  8.93776730383172 5.82768031189084  7.34883089426164 7.42456140350877  C 5.85920301028968 9.12124756335283  4.56819217751399 11.0175438596491  3.67441544713082 13.1134502923977  C 2.78063871674765 15.3091617933723  2.284096088757 17.6046783625731  2.284096088757 20  C 2.284096088757 23.1937621832359  3.17787281914017 26.2877192982456  4.76680922871025 28.9824561403509  C 5.46196890789716 30.0803118908382  4.86611775430838 31.6771929824561  4.2702666007196 33.6732943469786  C 4.07164954952334 34.3719298245614  3.87303249832708 34.9707602339181  3.67441544713082 35.5695906432749  C 3.57510692153269 35.8690058479532  3.57510692153269 36.0686159844054  3.57510692153269 36.2682261208577  C 3.77372397272895 36.2682261208577  3.97234102392521 36.2682261208577  4.2702666007196 36.1684210526316  C 4.86611775430838 36.0686159844055  5.46196890789716 35.7692007797271  6.15712858708407 35.5695906432749  Z " fill-rule="nonzero" fill="#ffffff" stroke="none" transform="matrix(1 0 0 1 770 20 )" />
    </g>
  </defs>
  <g transform="matrix(1 0 0 1 -760 -10 )">
    <use xlink:href="#widget3229" filter="url(#filter3228)" />
    <use xlink:href="#widget3229" />
  </g>
</svg>