<?xml version="1.0" encoding="utf-8"?>
<svg version="1.1" xmlns:xlink="http://www.w3.org/1999/xlink" width="53px" height="48px" xmlns="http://www.w3.org/2000/svg">
  <defs>
    <filter x="402px" y="339px" width="53px" height="48px" filterUnits="userSpaceOnUse" id="filter3222">
      <feOffset dx="0" dy="0" in="SourceAlpha" result="shadowOffsetInner" />
      <feGaussianBlur stdDeviation="5" in="shadowOffsetInner" result="shadowGaussian" />
      <feComposite in2="shadowGaussian" operator="atop" in="SourceAlpha" result="shadowComposite" />
      <feColorMatrix type="matrix" values="0 0 0 0 0  0 0 0 0 0  0 0 0 0 0  0 0 0 0.313725490196078 0  " in="shadowComposite" />
    </filter>
    <g id="widget3223">
      <path d="M 11.4180433390528 24  L 4.36963681684444 27.9764762201522  L 4.36963681684444 23.9691727184  L 3.21569411924444 23.9691727184  C 1.50037391456944 23.9691727184  0.128117830652777 22.6023404718696  0.128117830011108 20.924864600287  L 0.128117830011108 3.71520461790435  C 0.128117830011108 2.03772874632174  1.50037401402777 0.670896500430437  3.21569411924444 1  L 29.4756867171861 1  C 31.1910069218611 0.670896499152177  32.5632630057778 2.03772874568261  32 3.71520461790435  L 32 20.924864600287  C 32.5632630070611 22.6023404718696  31.1910068230445 23.9691727177609  29.4756867171861 24  L 11.4180433390528 24  Z M 29.4756867171861 3  L 3.21569411924444 3  C 2.52956607728611 2.53475854538261  1.99937615356111 3.06285285612174  2 3.71520461790435  L 2 20.924864600287  C 1.99937615356111 21.5772163607913  2.56075366127778 22.1053105731044  3.21569411924444 22.105310674087  L 6.24089513975278 22.105310674087  L 6.24089513975278 24.7457819280304  L 10.9190411000611 22  L 29.4756867171861 22  C 30.1618147591444 22.105310674087  30.6920046828694 21.5772163633478  30.6920046835111 20.924864600287  L 30.6920046835111 3.71520461790435  C 30.6920046835111 3.0628528574  30.1306271757944 2.53475864508696  29.4756867171861 3  Z " fill-rule="nonzero" fill="#ffffff" stroke="none" transform="matrix(1 0 0 1 412 349 )" />
    </g>
  </defs>
  <g transform="matrix(1 0 0 1 -402 -339 )">
    <use xlink:href="#widget3223" filter="url(#filter3222)" />
    <use xlink:href="#widget3223" />
  </g>
</svg>