<?xml version="1.0" encoding="utf-8"?>
<svg version="1.1" xmlns:xlink="http://www.w3.org/1999/xlink" width="20px" height="20px" xmlns="http://www.w3.org/2000/svg">
  <g transform="matrix(1 0 0 1 -787 -20 )">
    <path d="M 19.9770341463415 1.68040975609756  C 19.977112195122 0.759219512195122  19.2276487804878 0.00975609756097562  18.3064390243902 0  L 1.6740487804878 0  C 0.752839024390244 0.00975609756097562  0.00345365853658537 0.7592  0.00345365853658537 1.68039024390244  C 0.00345365853658537 2.11968780487805  0.173014634146341 2.53108292682927  0.482458536585366 2.84591219512195  C 0.491792763371957 2.86319643283559  0.503583707604584 2.87903599560072  0.517463414634146 2.89293658536585  L 6.36312195121951 8.73906341463415  L 6.36312195121951 11.7694243902439  L 6.36306341463415 12.2934634146341  C 6.3632 12.295356097561  6.36306341463415 12.2972292682927  6.36306341463415 12.2991219512195  C 6.36306341463415 12.6812682926829  6.67283902439024 12.991043902439  7.05498536585366 12.991043902439  C 7.43713170731707 12.991043902439  7.74688780487805 12.6812682926829  7.74688780487805 12.2991414634146  C 7.74688780487805 12.2972292682927  7.74677073170732 12.295356097561  7.74677073170732 12.2934634146341  L 7.74690731707317 12.2714536585366  C 7.74698536585366 12.2690731707317  7.74727804878049 12.2666926829268  7.74727804878049 12.2643121951219  L 7.74727804878049 8.24975609756098  C 7.74727804878049 8.19598048780488  7.72589268292683 8.14439024390244  7.68784390243902 8.10634146341463  L 1.52552195121951 1.94442926829268  C 1.51470080804308 1.92730796949737  1.50136819747482 1.91191002113019  1.48597073170732 1.8987512195122  C 1.44628292682927 1.86476097560976  1.37964878048781 1.79123902439024  1.37964878048781 1.68040975609756  C 1.37964878048781 1.51806829268293  1.51170731707317 1.38602926829268  1.67406829268293 1.38602926829268  L 18.3064975609756 1.38602926829268  C 18.4685268292683 1.38602926829268  18.6003512195122 1.51808780487805  18.6003512195122 1.68040975609756  C 18.6003512195122 1.79162926829268  18.5340878048781 1.86495609756098  18.4945170731707 1.8987512195122  C 18.4787661703328 1.91221181446622  18.4651767581672 1.92801238522149  18.4542243902439 1.9456  L 12.2930926829268 8.10591219512195  C 12.2550165874937 8.143954023784  12.2336397425481 8.19558138592852  12.2336780487805 8.24940487804878  C 12.2336780487805 8.30442926829268  12.2362146341463 13.8004487804878  12.2362146341463 18.3192390243902  C 12.2362146341463 18.481287804878  12.1032195121951 18.6131512195122  11.9397268292683 18.6131512195122  C 11.8274146341463 18.6131512195122  11.7529365853659 18.5463414634146  11.7185365853659 18.5065365853659  C 11.7048386311699 18.4906546453947  11.6887576304047 18.4769959975897  11.6708682926829 18.4660487804878  L 10.083356097561 16.9012682926829  C 10.0040195121951 16.823043902439  9.87640975609756 16.8234926829268  9.79765853658536 16.9022243902439  L 9.10396097560975 17.5954146341463  C 9.06590755732984 17.6334545653278  9.04452823540051 17.6850558793705  9.04452823540051 17.738862003623  C 9.04452823540051 17.7931447058903  9.06628687150602 17.8451622858471  9.10493658536585 17.8832780487805  L 10.7219902439024 19.4775804878049  C 10.7360199180137 19.491465290443  10.7520235121167 19.5032016977864  10.7694829268293 19.5124097560976  C 11.0859512195122 19.8210536585366  11.4989463414634 19.9902243902439  11.9396682926829 19.9902243902439  C 12.8649365853659 19.9902243902439  13.6177170731707 19.2407804878049  13.6177170731707 18.3195902439024  L 13.6177170731707 8.73908292682927  L 19.463356097561 2.89295609756098  C 19.4774866942472 2.87881623758018  19.489453025567 2.86266826520577  19.4988682926829 2.84503414634146  C 19.8077463414634 2.53036097560976  19.9770341463415 2.11927804878049  19.9770341463415 1.68040975609756  Z " fill-rule="nonzero" fill="#1296db" stroke="none" transform="matrix(1 0 0 1 787 20 )" />
  </g>
</svg>