<?xml version="1.0" encoding="utf-8"?>
<svg version="1.1" xmlns:xlink="http://www.w3.org/1999/xlink" width="61px" height="26px" xmlns="http://www.w3.org/2000/svg">
  <defs>
    <filter x="386px" y="375px" width="61px" height="26px" filterUnits="userSpaceOnUse" id="filter2901">
      <feOffset dx="0" dy="0" in="SourceAlpha" result="shadowOffsetInner" />
      <feGaussianBlur stdDeviation="5" in="shadowOffsetInner" result="shadowGaussian" />
      <feComposite in2="shadowGaussian" operator="atop" in="SourceAlpha" result="shadowComposite" />
      <feColorMatrix type="matrix" values="0 0 0 0 0  0 0 0 0 0  0 0 0 0 0  0 0 0 0.313725490196078 0  " in="shadowComposite" />
    </filter>
    <g id="widget2902">
      <path d="M 40.3127290123477 2.91222810293999  C 40.3127290123477 4.25953407624  39.2031191453273 5.33125482585  37.8081811426682 5.33125482521999  L 3.28346415196591 5.33125482521999  C 1.88852604755227 5.33125482521999  0.778916282286366 4.25953407560999  0.778916282286366 2.91222810293999  C 0.778916282286366 1.56492213027001  1.88852614930682 0.493201380030001  3.28346415196591 0.493201380030001  L 37.8081811426682 0.493201380030001  C 39.2031192470818 0.493201380030001  40.3127290123477 1.56492212964  40.3127290123477 2.91222810293999  Z M 37.8081811426682 1.71802500873  L 3.28346415196591 1.71802500873  C 2.61769823188409 1.71802500873  2.04704175709773 2.23857511503  2.04704175709773 2.91222810293999  C 2.04704175709773 3.58588109084998  2.58599514998409 4.10643119651999  3.28346415196591 4  L 37.8081811426682 4  C 38.47394706275 4.10643119651999  39.0446035375364 3.58588109021999  39.0446035375364 2.91222810293999  C 39.0446035375364 2.23857511565999  38.50565014465 1.71802500935999  37.8081811426682 1.71802500873  Z " fill-rule="nonzero" fill="#ffffff" stroke="none" transform="matrix(1 0 0 1 396 385 )" />
    </g>
  </defs>
  <g transform="matrix(1 0 0 1 -386 -375 )">
    <use xlink:href="#widget2902" filter="url(#filter2901)" />
    <use xlink:href="#widget2902" />
  </g>
</svg>