<?xml version="1.0" encoding="utf-8"?>
<svg version="1.1" xmlns:xlink="http://www.w3.org/1999/xlink" width="74px" height="59px" xmlns="http://www.w3.org/2000/svg">
  <defs>
    <filter x="380px" y="354px" width="74px" height="59px" filterUnits="userSpaceOnUse" id="filter2905">
      <feOffset dx="0" dy="0" in="SourceAlpha" result="shadowOffsetInner" />
      <feGaussianBlur stdDeviation="5" in="shadowOffsetInner" result="shadowGaussian" />
      <feComposite in2="shadowGaussian" operator="atop" in="SourceAlpha" result="shadowComposite" />
      <feColorMatrix type="matrix" values="0 0 0 0 0  0 0 0 0 0  0 0 0 0 0  0 0 0 0.313725490196078 0  " in="shadowComposite" />
    </filter>
    <g id="widget2906">
      <path d="M 51.8762952158727 37.1423652796219  C 51.8762952152284 38.0131383895758  51.1873319340716 38.6973172041422  50.3104695023148 38  L 1.9890881906625 38  C 1.11222575890568 38.697317204782  0.423262476460229 38.0131383902156  0.423262477104545 37.1423652796219  C 0.423262477748864 36.2715921690281  1.11222575890568 35.5874133551016  1.9890881906625 35  L 50.3104695023148 35  C 51.1873319340716 35.5874133551016  51.876295216517 36.271592169668  51.8762952158727 37.1423652796219  Z M 51.8762952158727 16.4615048320734  C 51.3439144227613 16.4615049325289  50.9367997676352 16.8968913867305  51 17.3944759059094  L 51 28.5590307156984  C 50.9367997676352 29.6163980205844  50.0599373358784 30.4871711298984  48.9951759558375 30  L 3.86807898533523 30  C 2.80331750349205 30.4871711298984  1.92645507173523 29.6163980205844  2 28.5590307156984  L 2 4.36397884799297  C 1.9264551735375 3.30661154310703  2.80331760529432 2.43583843379297  3.86807898533523 2.43583843443282  L 10.7263956478705 2.43583843443282  C 11.2587764384045 2.43583843443282  11.665891096108 2.03155096249219  11.6658909962386 1.50286735995704  C 11.6658908963693 0.974183757421883  11.2587763391795 0.569896185665628  10.7263956478705 0.569896185665628  L 3.86807898533523 0.569896185665628  C 1.76987258175682 0.569896185665628  0.0474642764181795 2.24924424014063  0 4.36397884799297  L 0 28.5590307156984  C 0.0474642770624982 30.6426662414742  1.73855602422613 32.3531133780258  3.86807898533523 32  L 48.9951759558375 32  C 51.0933823594159 32.3531133786656  52.8157906647545 30.6737653241906  52 28.5590307156984  L 52 17.3944759059094  C 52.8157906660432 16.8657922041984  52.4086760089841 16.461504731618  51.8762952158727 16.4615048320734  Z " fill-rule="nonzero" fill="#ffffff" stroke="none" transform="matrix(1 0 0 1 390 364 )" />
    </g>
  </defs>
  <g transform="matrix(1 0 0 1 -380 -354 )">
    <use xlink:href="#widget2906" filter="url(#filter2905)" />
    <use xlink:href="#widget2906" />
  </g>
</svg>