<?xml version="1.0" encoding="utf-8"?>
<svg version="1.1" xmlns:xlink="http://www.w3.org/1999/xlink" width="12px" height="20px" xmlns="http://www.w3.org/2000/svg">
  <g transform="matrix(1 0 0 1 -25 -20 )">
    <path d="M 11.6889075969828 18.6396085778061  L 2.08801858836207 10.0006975446429  L 11.6898572198276 1.3599928252551  C 12.0064049030172 1.04968510841837  12.0064049030172 0.547472895408163  11.6898572198276 0.237165178571429  C 11.3734105603448 -0.0727240114795918  10.8617658943966 -0.0727240114795918  10.5457233297414 0.237165178571429  L 0.551690463362069 9.23060825892857  C 0.453939924568966 9.26935188137755  0.362351831896551 9.32758689413265  0.283149245689655 9.4053730867347  C 0.112944504310345 9.57194674744898  0.0344086745689654 9.79444355867347  0.0472386853448282 10.0126753826531  C 0.0418238146551724 10.2226163903061  0.120622306034483 10.4342713647959  0.284078663793104 10.5943478954082  C 0.362533674568966 10.6712571747449  0.453131734913793 10.7290338010204  0.549791217672414 10.7677574936224  L 10.5442483836207 19.7625358737245  C 10.8607960668103 20.0728635204082  11.3723397090517 20.0728635204082  11.6889075969828 19.7625358737245  C 12.0049501616379 19.4522680165816  12.0049501616379 18.9499362244898  11.6889075969828 18.6396085778061  Z " fill-rule="nonzero" fill="#ffffff" stroke="none" transform="matrix(1 0 0 1 25 20 )" />
  </g>
</svg>