<?xml version="1.0" encoding="utf-8"?>
<svg version="1.1" xmlns:xlink="http://www.w3.org/1999/xlink" width="30px" height="30px" xmlns="http://www.w3.org/2000/svg">
  <g transform="matrix(1 0 0 1 -15 -26 )">
    <path d="M 28.9997209821429 15  C 28.9997209821429 22.7318324497768  22.7318324497768 28.9997209821429  15 28.9997209821429  C 7.26816755022321 28.9997209821429  1.00027901785714 22.7318324497768  1.00027901785714 15  C 1.00027901785714 7.26816755022322  7.26816755022321 1.00027901785714  15 1.00027901785714  C 22.7318324497768 1.00027901785714  28.9997209821429 7.26816755022322  28.9997209821429 15  Z M 15.9034842354911 22.4226771763393  L 22.2525460379464 18.9063302176339  C 22.7599888392857 18.6215645926339  22.7599888392857 18.1758335658482  22.2401785714286 17.8910365513393  L 21.3985630580357 17.4205705915179  L 16.5099295479911 20.1320905412946  C 15.9653529575893 20.4415910993304  15.3712751116071 20.5035226004464  14.9876325334821 20.5035226004464  C 14.6039585658482 20.5035226004464  14.0098807198661 20.4416224888393  13.4653355189732 20.1320905412946  L 8.57667061941964 17.4205705915179  L 7.73508649553571 17.8910365513393  C 7.24001116071429 18.1634347098214  7.24001116071429 18.6091657366071  7.73508649553571 18.8939313616071  L 14.0841482979911 22.4226771763393  C 14.5915910993304 22.7074428013393  15.4084089006696 22.7074428013393  15.9034842354911 22.4226771763393  Z M 7.74745396205357 12.1089320591518  L 14.0965157645089 15.637646484375  C 14.5915910993304 15.922412109375  15.4084089006696 15.922412109375  15.9158517020089 15.637646484375  L 22.2649135044643 12.1089634486607  C 22.7599888392857 11.8241664341518  22.7599888392857 11.3784354073661  22.2649135044643 11.1060686383929  L 15.9034842354911 7.57732282366071  C 15.4084089006696 7.29255719866071  14.5915910993304 7.29255719866071  14.0841482979911 7.57732282366071  L 7.74745396205357 11.1060686383929  C 7.24001116071429 11.3908342633929  7.24001116071429 11.8365652901786  7.74745396205357 12.1089634486607  Z M 22.2525460379464 14.5109514508929  L 21.4109619140625 14.0404227120536  L 16.5222970145089 16.7519740513393  C 15.9777204241071 17.061474609375  15.3836739676339 17.1234061104911  15 17.1234061104911  C 14.6163260323661 17.1234061104911  14.0222795758929 17.0615059988839  13.4777029854911 16.7519740513393  L 8.5890380859375 14.0404227120536  L 7.7474853515625 14.5109200613839  C 7.25241001674107 14.7956856863839  7.25241001674107 15.2414167131696  7.7474853515625 15.5138148716518  L 14.0965157645089 19.0424979073661  C 14.5915910993304 19.3272635323661  15.4084089006696 19.3272635323661  15.9158517020089 19.0424979073661  L 22.2649135044643 15.5137834821429  C 22.7599888392857 15.2414167131696  22.7599888392857 14.7832868303571  22.2525460379464 14.510888671875  Z " fill-rule="nonzero" fill="#169bd5" stroke="none" transform="matrix(1 0 0 1 15 26 )" />
  </g>
</svg>